<?xml version="1.0" standalone="no"?>
<!DOCTYPE svg PUBLIC "-//W3C//DTD SVG 20010904//EN"
 "http://www.w3.org/TR/2001/REC-SVG-20010904/DTD/svg10.dtd">
<svg version="1.0" xmlns="http://www.w3.org/2000/svg"
 width="225.000000pt" height="225.000000pt" viewBox="0 0 225.000000 225.000000"
 preserveAspectRatio="xMidYMid meet">
<metadata>
Created by potrace 1.15, written by Peter Selinger 2001-2017
</metadata>
<g transform="translate(0.000000,225.000000) scale(0.100000,-0.100000)"
fill="#000000" stroke="none">
<path d="M1005 2244 c-226 -36 -402 -122 -554 -268 -402 -389 -399 -1025 7
-1407 67 -64 171 -139 191 -139 23 0 9 -22 -67 -107 -118 -134 -172 -209 -172
-243 0 -19 61 -38 181 -57 97 -15 177 -18 539 -18 412 0 484 4 626 35 29 6 60
17 70 25 18 13 18 14 1 50 -23 48 -87 131 -171 221 -36 40 -66 74 -66 77 0 2
33 26 73 52 509 338 585 1049 158 1488 -181 187 -400 284 -661 292 -69 2 -138
1 -155 -1z m541 -482 c-5 -70 6 -110 23 -84 6 10 10 8 14 -8 3 -12 10 -19 15
-16 6 4 8 -3 5 -16 -4 -18 -2 -20 6 -8 8 12 12 9 20 -13 6 -16 11 -40 11 -53
0 -40 15 -58 69 -84 28 -13 51 -27 51 -31 0 -3 -29 -4 -65 -1 l-65 5 -39 -41
c-39 -40 -89 -62 -142 -62 -22 0 -32 -10 -55 -55 -16 -30 -32 -55 -35 -55 -3
0 -3 27 -1 60 4 59 4 61 -36 101 -32 32 -43 52 -52 97 -7 31 -14 63 -16 69 -2
7 -24 23 -49 35 -25 12 -45 26 -45 31 0 5 26 6 58 3 60 -7 74 -2 85 27 4 10
17 17 33 17 17 0 24 4 21 13 -4 10 3 12 26 9 25 -4 29 -2 24 11 -5 13 -1 16
16 14 12 -1 25 -6 28 -10 4 -5 24 18 45 52 22 33 42 60 46 60 5 1 6 -29 4 -67z
m-943 -557 c24 -81 43 -127 74 -183 l29 -53 450 -2 449 -2 24 40 c32 55 86
197 102 270 l14 60 10 -50 c13 -64 11 -341 -3 -357 -10 -13 -28 -96 -23 -112
2 -11 -27 -100 -45 -135 -8 -14 -14 -31 -14 -37 0 -5 -31 -41 -69 -79 -42 -43
-67 -75 -64 -85 4 -13 4 -13 -6 0 -8 12 -14 13 -28 3 -46 -32 -139 -78 -151
-75 -7 2 -19 -2 -27 -8 -25 -21 -60 -25 -205 -25 -119 0 -151 3 -177 18 -18 9
-41 17 -51 17 -22 0 -135 58 -140 71 -2 5 -9 9 -15 9 -16 0 -147 141 -147 158
0 7 -10 28 -23 45 -13 18 -23 39 -22 47 0 8 -4 18 -9 22 -20 14 -7 448 14 488
6 10 11 45 11 77 l1 58 13 -65 c7 -36 20 -87 28 -115z m281 120 c6 -9 24 -18
40 -21 16 -3 38 -10 48 -15 11 -6 31 -8 44 -5 27 7 32 -5 9 -24 -8 -7 -15 -27
-15 -44 0 -17 -7 -40 -15 -50 -8 -11 -12 -29 -9 -43 7 -26 -10 -32 -24 -7 -5
9 -23 17 -40 18 -17 1 -40 10 -50 19 -15 14 -25 15 -46 8 -31 -12 -33 -5 -8
23 23 27 46 94 44 129 -3 30 5 35 22 12z m565 -1202 c21 -9 22 -11 7 -25 -9
-9 -16 -21 -16 -26 0 -29 -368 -53 -498 -32 -113 18 -142 28 -142 51 0 10 -5
19 -12 19 -29 0 8 15 50 20 78 9 585 3 611 -7z"/>
</g>
</svg>
